# xmcd
#
# Track frame offsets: 
#        150
#        11572
#        24060
#        35702
#        45346
#        57336
#        66456
#        79067
#        93386
#        103538
#        114453
#        127224
#        137457
#        150134
#        161994
#        174603
#        185082
#        193258
#        203208
#        216672
#
# Disc length: 3024 seconds
#
# Revision: 2
# Processed by: cddbd v1.5.2PL0 Copyright (c) Steve Scherf et al.
# Submitted via: ExactAudioCopyFreeDBPlugin 1.0
#
DISCID=1e0bce14
DTITLE=Various Artist - VeeJay:  The Very Best of Blues [Rhino-Collec
DTITLE=tables box set]
DYEAR=2000
DGENRE=Blues
TTITLE0=John Lee Hooker - Boom Boom
TTITLE1=Jimmy Reed - Bright Lights, Big City
TTITLE2=Christine Kittrell - I'm a Woman
TTITLE3=Rosco Gordon - Just a Little Bit
TTITLE4=Willie Cobbs - You're So Hard to Please
TTITLE5=J.B. Lenoir - Do What I Say
TTITLE6=Eddie Taylor - I'm Sitting Here
TTITLE7=Little Richard - Goin' Home Tomorrow
TTITLE8=Harold Burrage - Crying for My Baby
TTITLE9=John Lee Hooker - No Shoes
TTITLE10=Jimmy Reed - Big Boss Man
TTITLE11=Jimmy Witherspoon - Kansas City
TTITLE12=Ivory Joe Hunter - Somebody's Stealing My Man
TTITLE13=Willie Cobbs - You Don't Love Me
TTITLE14=Rosco Gordon - What You Do to Me
TTITLE15=Jerry "Count" Jackson - Come Back Baby
TTITLE16=Christine Kittrell - It's Nobody's Fault
TTITLE17=J.B. Lenoir - Oh Baby
TTITLE18=Jimmy Reed - I'm the Man Down There
TTITLE19=John Lee Hooker - Big Legs, Tight Skirt
EXTD=YEAR: 1961
EXTT0=
EXTT1=
EXTT2=
EXTT3=
EXTT4=
EXTT5=
EXTT6=
EXTT7=
EXTT8=
EXTT9=
EXTT10=
EXTT11=
EXTT12=
EXTT13=
EXTT14=
EXTT15=
EXTT16=
EXTT17=
EXTT18=
EXTT19=
PLAYORDER=
